HIERARCHY
ROOT ROOT
{
	OFFSET 0.000000 56.020000 -5.659234
	CHANNELS 6 Xposition Yposition Zposition Xrotation Yrotation Zrotation 
	JOINT C_spine0001_bind_JNT
	{
		OFFSET 0.000000 1.618999 0.000000
		CHANNELS 3 Xrotation Yrotation Zrotation
		JOINT C_spine0002_bind_JNT
		{
			OFFSET 0.000000 4.942001 0.000001
			CHANNELS 3 Xrotation Yrotation Zrotation
			JOINT C_spine0003_bind_JNT
			{
				OFFSET 0.000000 4.942001 -0.000000
				CHANNELS 3 Xrotation Yrotation Zrotation
				JOINT C_neck0001_bind_JNT
				{
					OFFSET 0.000000 17.026009 -0.000000
					CHANNELS 3 Xrotation Yrotation Zrotation
					JOINT C_neck0002_bind_JNT
					{
						OFFSET 0.000000 3.249985 0.000000
						CHANNELS 3 Xrotation Yrotation Zrotation
						JOINT C_head_bind_JNT
						{
							OFFSET 0.000000 5.278008 0.000000
							CHANNELS 3 Xrotation Yrotation Zrotation
							End Site
							{
								OFFSET 0.000000 0.000000 0.000000
							}
						}
					}
				}
				JOINT L_clavicle_bind_JNT
				{
					OFFSET 4.590000 12.067001 0.834000
					CHANNELS 3 Xrotation Yrotation Zrotation
					JOINT L_armUpper0001_bind_JNT
					{
						OFFSET 7.812635 0.512001 -3.452945
						CHANNELS 3 Xrotation Yrotation Zrotation
						JOINT L_armLower0001_bind_JNT
						{
							OFFSET 15.265892 -6.552116 -0.058157
							CHANNELS 3 Xrotation Yrotation Zrotation
							JOINT L_hand0001_bind_JNT
							{
								OFFSET 14.747667 -6.369995 5.049225
								CHANNELS 3 Xrotation Yrotation Zrotation
								End Site
								{
									OFFSET 0.000000 0.000000 0.000000
								}
							}
						}
					}
				}
				JOINT R_clavicle_bind_JNT
				{
					OFFSET -4.590000 12.067001 0.834000
					CHANNELS 3 Xrotation Yrotation Zrotation
					JOINT R_armUpper0001_bind_JNT
					{
						OFFSET -7.812635 0.512001 -3.452945
						CHANNELS 3 Xrotation Yrotation Zrotation
						JOINT R_armLower0001_bind_JNT
						{
							OFFSET -15.265890 -6.552124 -0.058160
							CHANNELS 3 Xrotation Yrotation Zrotation
							JOINT R_hand0001_bind_JNT
							{
								OFFSET -14.746784 -6.369629 5.048937
								CHANNELS 3 Xrotation Yrotation Zrotation
								End Site
								{
									OFFSET 0.000000 0.000000 0.000000
								}
							}
						}
					}
				}
			}
		}
	}
	JOINT C_pelvis0001_bind_JNT
	{
		OFFSET -0.000000 0.000000 0.000000
		CHANNELS 3 Xrotation Yrotation Zrotation
		JOINT L_legUpper0001_bind_JNT
		{
			OFFSET 6.599999 -6.027000 0.539000
			CHANNELS 3 Xrotation Yrotation Zrotation
			JOINT L_legLower0001_bind_JNT
			{
				OFFSET -0.140713 -19.187443 0.040261
				CHANNELS 3 Xrotation Yrotation Zrotation
				JOINT L_foot0001_bind_JNT
				{
					OFFSET -0.132215 -18.028637 -1.138370
					CHANNELS 3 Xrotation Yrotation Zrotation
					JOINT L_foot0002_bind_JNT
					{
						OFFSET 0.007014 -4.693133 9.886524
						CHANNELS 3 Xrotation Yrotation Zrotation
						End Site
						{
							OFFSET 0.000000 0.000000 0.000000
						}
					}
				}
			}
		}
		JOINT R_legUpper0001_bind_JNT
		{
			OFFSET -6.599999 -6.027000 0.539000
			CHANNELS 3 Xrotation Yrotation Zrotation
			JOINT R_legLower0001_bind_JNT
			{
				OFFSET 0.140710 -19.187164 0.040550
				CHANNELS 3 Xrotation Yrotation Zrotation
				JOINT R_foot0001_bind_JNT
				{
					OFFSET 0.132215 -18.028633 -1.138362
					CHANNELS 3 Xrotation Yrotation Zrotation
					JOINT R_foot0002_bind_JNT
					{
						OFFSET -0.007014 -4.693128 9.886505
						CHANNELS 3 Xrotation Yrotation Zrotation
						End Site
						{
							OFFSET 0.000000 0.000000 0.000000
						}
					}
				}
			}
		}
	}
}
MOTION
Frames: 16
Frame Time: 0.033333
0.000000 48.629578 0.000000 0.014836 -2.275835 -0.007990 -4.344606 0.871064 -0.938018 3.094705 1.959241 1.094420 0.975246 1.908100 0.748286 -2.117089 -0.324465 0.607641 0.944490 -1.169722 -0.787522 5.372613 -0.344797 -0.922433 1.295829 15.234484 -4.283314 1.749596 9.750849 -59.706928 18.252636 0.220423 -0.457661 -15.331158 -35.616051 -24.941095 0.866253 -15.619024 3.159110 -0.182207 -0.380190 60.070026 16.759605 -4.031632 2.058124 -4.035572 31.411167 28.231640 -3.935389 0.703845 -0.596546 12.655016 -0.018563 -2.399680 -5.107236 1.233283 0.675338 -2.464370 0.740798 1.643673 -1.410711 -0.084629 -0.104929 8.734644 -0.198498 5.028168 -1.140626 -0.174295 -1.278724 -3.039717 -4.842239 -2.009915 -0.586467 -0.099477 -0.095518 
0.375663 48.602051 0.219385 0.001531 -1.872955 -0.011336 -4.516607 0.215599 -1.301350 3.122775 2.009959 1.078711 1.122268 2.062558 0.660225 -3.046223 -0.345945 0.656586 1.313699 -1.233575 -0.376226 5.715569 -0.452150 -1.157583 1.363279 15.156528 -4.520601 0.870369 9.420688 -58.913754 20.089949 0.622093 -0.189416 -17.567682 -35.594578 -25.728764 0.564271 -15.210014 3.631304 1.059641 -1.003173 59.533401 16.489698 -3.540704 1.498349 -5.169514 31.576380 29.224031 -4.081463 -0.120431 -0.567506 12.800869 0.663585 -3.308661 -4.966543 2.275037 0.710169 -2.578244 -0.060867 2.203462 -0.971535 -0.248029 -0.266940 9.874066 -0.654300 4.614124 -2.342065 0.298145 -1.380775 -2.478082 -4.503160 -1.868691 -1.026608 -0.113830 0.046824 
0.304460 48.556259 0.286247 -0.007331 -1.762675 0.000275 -4.069195 0.281974 -1.331789 2.726898 1.930740 1.019705 1.211063 2.066189 0.481306 -2.983439 -0.435875 0.826320 1.216885 -1.215260 -0.298570 5.231683 -0.482392 -0.974196 1.135773 15.270370 -4.727402 0.191726 9.067318 -59.243153 19.790270 1.510275 0.625195 -17.079603 -35.921944 -25.646414 0.319301 -15.307387 4.036301 1.243602 -1.045674 59.316761 16.588779 -3.792073 1.201013 -5.060608 31.694500 29.416651 -3.828233 0.001895 -0.619013 13.083392 0.786538 -3.114753 -5.347768 2.188133 0.921700 -2.510147 -0.332257 2.193476 -1.076309 -0.301641 -0.379977 9.490944 -0.805741 4.660709 -2.215342 0.630710 -1.405216 -2.429564 -4.514378 -1.916587 -1.107937 -0.108775 0.047027 
0.270676 48.616001 0.280527 0.005862 -1.870523 -0.010626 -3.893082 0.407963 -1.396017 2.619519 1.934751 1.051086 1.177770 1.998652 0.620531 -3.085813 -0.336279 0.731024 1.342727 -1.063924 -0.304965 5.076452 -0.744868 -0.902445 1.151709 15.397199 -4.927749 -0.192452 8.605804 -59.369778 19.618803 1.889935 0.997278 -16.848585 -35.860401 -25.967258 0.230236 -15.204759 4.033718 1.283531 -1.351630 59.202381 17.048407 -3.982151 1.111477 -5.031065 31.750399 29.407221 -3.593438 0.201564 -0.604939 12.868266 0.797647 -2.856888 -5.454073 2.041240 1.004603 -2.516834 -0.086361 2.000743 -1.080487 -0.345364 -0.429846 9.301995 -0.675828 4.424724 -2.688214 0.633221 -1.294436 -2.036393 -4.568491 -1.880312 -1.041678 -0.007780 0.049339 
0.269930 48.609241 0.276477 -0.000910 -1.661246 0.000573 -3.961329 0.293861 -1.428041 2.603750 1.849177 1.133385 1.195471 1.970567 0.525203 -2.952016 -0.381010 0.794035 1.242799 -1.054776 -0.214520 5.026949 -0.529608 -0.991536 1.055966 15.480092 -4.928195 -0.182537 8.385069 -59.351627 19.685789 2.135488 1.289608 -16.398468 -35.869740 -26.089178 0.266472 -15.212982 3.998691 1.580404 -1.546157 59.311981 17.385599 -4.181341 0.907819 -4.965928 32.026112 29.348627 -3.609692 0.020955 -0.590914 13.026125 0.863772 -2.726295 -5.697043 1.859882 0.930846 -2.370656 -0.011035 1.977037 -1.028068 -0.278038 -0.526354 9.355466 -0.663285 4.219413 -2.725423 0.756480 -1.210212 -2.053050 -4.796562 -1.826562 -0.979502 -0.021911 0.106243 
0.262260 48.623352 0.256787 -0.001883 -1.657983 -0.002383 -3.871762 0.294578 -1.414695 2.583565 1.851084 1.105864 1.182369 1.956643 0.604635 -2.919080 -0.379683 0.848301 1.203066 -1.109999 -0.304936 4.889703 -0.571829 -0.977410 1.050893 15.387367 -4.918902 -0.269617 8.235729 -59.444363 19.631058 2.171977 1.269479 -16.159794 -35.740650 -26.136370 0.238593 -15.319685 3.902718 1.724303 -1.726598 59.216850 17.566275 -4.243146 0.901027 -5.117279 31.966702 29.609303 -3.566332 0.120589 -0.594539 12.989647 0.728302 -2.620565 -5.609753 1.809211 0.876459 -2.448722 0.016280 1.950052 -1.082404 -0.224708 -0.527843 9.161716 -0.663643 4.249897 -2.656484 0.758449 -1.224359 -1.992894 -4.923719 -1.793617 -0.915531 0.017619 0.120988 
0.255327 48.619595 0.220592 0.000918 -1.498141 -0.005937 -3.926417 0.166255 -1.447783 2.668160 1.810134 1.176064 1.254665 1.934258 0.595222 -2.945827 -0.415567 0.907383 1.180564 -1.079655 -0.277706 4.938813 -0.600047 -1.063372 1.000373 15.331866 -4.904325 -0.252439 8.234081 -59.482597 19.610495 2.163403 1.347771 -15.883412 -35.727661 -26.114601 0.271556 -15.382000 3.922401 1.930468 -1.886343 59.155937 17.572086 -4.275620 0.763467 -5.183433 31.889561 29.844231 -3.627276 0.011661 -0.572845 13.016826 0.673733 -2.529621 -5.542324 1.822073 0.779960 -2.506159 0.017104 1.941511 -1.027665 -0.254527 -0.547362 9.110887 -0.689638 4.205441 -2.701428 0.873436 -1.114357 -1.939149 -5.082439 -1.874241 -0.878117 -0.030670 0.118114 
0.255753 48.632942 0.182052 -0.000297 -1.434227 -0.001329 -3.894526 0.093637 -1.410699 2.752848 1.769258 1.159324 1.198702 1.895806 0.650376 -2.958624 -0.427139 0.872214 1.222550 -1.085410 -0.308219 4.822594 -0.485205 -0.960853 0.937529 15.350518 -4.943942 -0.213957 8.136990 -59.491280 19.553686 2.218303 1.309689 -15.667747 -35.641220 -26.014572 0.294477 -15.327477 3.800566 2.136048 -2.060590 59.094704 17.542000 -4.351625 0.737935 -5.208898 31.890045 29.965889 -3.624133 -0.038705 -0.579545 13.022436 0.578758 -2.551085 -5.574340 1.876511 0.811065 -2.445084 0.060588 1.927827 -1.043627 -0.198376 -0.571755 9.008181 -0.614596 4.178259 -2.679990 0.756519 -1.087961 -1.934079 -5.034479 -1.873158 -0.835967 0.005087 0.107963 
0.257346 48.638802 0.143337 0.001186 -1.232777 -0.002383 -3.830637 -0.045802 -1.472812 2.740735 1.686261 1.236710 1.242866 1.818737 0.644655 -2.962012 -0.414314 0.911315 1.194160 -0.986025 -0.313930 4.787780 -0.601196 -0.933170 0.901895 15.386482 -4.912198 -0.164257 8.020823 -59.462509 19.613186 2.150570 1.269996 -15.429010 -35.694496 -25.849556 0.299515 -15.317842 3.829598 2.263107 -2.102850 59.005386 17.461130 -4.436094 0.821998 -5.179945 31.934689 29.965988 -3.621947 -0.175043 -0.644473 12.920004 0.502271 -2.424539 -5.452566 1.972465 0.778325 -2.548744 0.028787 1.892914 -0.992718 -0.233772 -0.569526 8.926793 -0.622600 4.227709 -2.668658 0.845857 -1.044721 -1.921851 -5.057238 -1.936958 -0.813826 -0.002426 0.112731 
0.259103 48.656551 0.102630 0.000755 -1.197547 -0.003198 -3.818251 -0.032326 -1.524454 2.741652 1.593740 1.273555 1.221856 1.767367 0.639068 -2.958783 -0.455956 0.946127 1.215962 -0.845707 -0.333421 4.733309 -0.641049 -0.924917 0.871006 15.347026 -4.804553 -0.204600 7.980265 -59.505962 19.692661 2.089803 1.257003 -15.258919 -35.650021 -25.726559 0.375734 -15.228598 3.871265 2.321201 -2.349103 58.912155 17.488731 -4.509635 0.811564 -5.073491 32.004650 30.071600 -3.579076 -0.185357 -0.639630 12.842023 0.493347 -2.424124 -5.399127 1.977004 0.799495 -2.570028 0.050092 1.857816 -0.984124 -0.237840 -0.594390 8.720825 -0.667602 4.221282 -2.569259 0.847889 -1.074731 -1.897148 -5.023400 -1.956749 -0.779902 -0.033212 0.167698 
0.261944 48.674507 0.067359 -0.000987 -1.159812 -0.003065 -3.745043 -0.060436 -1.554499 2.686232 1.561616 1.310179 1.273122 1.735746 0.639871 -2.974852 -0.502813 0.953547 1.223196 -0.777132 -0.295357 4.780749 -0.723335 -0.920791 0.827324 15.323576 -4.724543 -0.184871 7.896753 -59.540089 19.744556 2.020124 1.309795 -15.060037 -35.680134 -25.671436 0.435469 -15.290991 3.918974 2.442165 -2.439837 58.824203 17.433323 -4.487551 0.721678 -5.083223 32.037327 30.190855 -3.586550 -0.195400 -0.654877 12.803465 0.458849 -2.390739 -5.253099 2.014748 0.805930 -2.676582 0.127349 1.827909 -1.009610 -0.246414 -0.574375 8.537257 -0.689997 4.240910 -2.476393 0.918623 -1.030895 -1.892004 -5.059895 -2.008823 -0.689182 -0.087313 0.160827 
0.269569 48.675888 0.045559 0.000135 -1.207627 -0.003021 -3.691829 -0.017135 -1.547896 2.633408 1.525625 1.314252 1.251031 1.693218 0.655169 -2.914034 -0.490242 0.940140 1.229256 -0.763779 -0.307634 4.720906 -0.699395 -0.893066 0.858919 15.293406 -4.766634 -0.205579 7.914738 -59.566357 19.788565 1.980882 1.322334 -14.967942 -35.760330 -25.548975 0.573543 -15.334756 3.994204 2.448456 -2.486679 58.750851 17.493980 -4.467652 0.662010 -5.073789 31.988325 30.198662 -3.541497 -0.155221 -0.677455 12.823656 0.441284 -2.396923 -5.266541 2.096300 0.814546 -2.709476 0.175456 1.804906 -1.015178 -0.275346 -0.564776 8.388342 -0.681808 4.313441 -2.465656 0.940097 -1.079451 -1.772168 -5.103867 -2.009849 -0.747577 -0.025702 0.169370 
0.282146 48.693336 0.030691 0.001825 -1.210722 -0.003343 -3.677230 -0.058962 -1.513317 2.671099 1.488457 1.283919 1.266410 1.673634 0.640234 -2.955786 -0.486782 0.925321 1.244549 -0.714793 -0.256177 4.758344 -0.695858 -0.935542 0.857675 15.405089 -4.789673 -0.212356 7.814462 -59.556656 19.834846 1.824163 1.340526 -14.818597 -35.849293 -25.375511 0.612834 -15.346695 3.988800 2.453212 -2.539291 58.752773 17.488058 -4.388784 0.647793 -5.099566 31.952587 30.193249 -3.545510 -0.185218 -0.670043 12.865627 0.443454 -2.419775 -5.315400 2.176193 0.817173 -2.639121 0.257963 1.762325 -1.096050 -0.248960 -0.557858 8.259017 -0.732250 4.242910 -2.390419 0.995525 -1.032943 -1.815422 -5.054035 -1.995346 -0.656640 -0.049232 0.162216 
0.294086 48.712780 0.027529 -0.000040 -1.240174 -0.005045 -3.623619 0.005604 -1.510949 2.640584 1.455000 1.294261 1.230259 1.630774 0.618946 -2.894754 -0.479456 0.931318 1.233014 -0.711138 -0.299141 4.740354 -0.727547 -0.871711 0.901493 15.396053 -4.815102 -0.213339 7.797985 -59.510979 19.868750 1.766166 1.353899 -14.936461 -35.932106 -25.406620 0.664446 -15.345614 4.030049 2.393350 -2.523189 58.660954 17.537371 -4.384845 0.705050 -5.206017 32.017422 30.250263 -3.495076 -0.121161 -0.667020 12.886952 0.384970 -2.457206 -5.391000 2.271382 0.829712 -2.615975 0.217388 1.735280 -1.122733 -0.259039 -0.530277 8.135251 -0.726287 4.270003 -2.412306 0.947279 -1.070477 -1.712249 -4.993465 -2.005616 -0.707669 -0.068198 0.176517 
0.298390 48.716621 0.039813 0.000496 -1.154114 -0.001424 -3.582860 -0.051619 -1.507222 2.655616 1.429797 1.250950 1.258814 1.645643 0.630393 -2.854495 -0.496305 0.930610 1.260702 -0.703019 -0.300717 4.614467 -0.744968 -0.813902 0.973352 15.379576 -4.864178 -0.438483 7.705832 -59.520752 19.961586 1.711329 1.352833 -14.916745 -36.005436 -25.272064 0.730052 -15.390654 4.043720 2.331711 -2.533227 58.621979 17.512802 -4.308705 0.757130 -5.228473 32.011101 30.305405 -3.378223 -0.182327 -0.654405 12.824526 0.412828 -2.466826 -5.401923 2.371850 0.828693 -2.588659 0.222710 1.722577 -1.199278 -0.267116 -0.556921 7.962875 -0.681946 4.222494 -2.318920 1.018138 -1.076270 -1.777908 -5.008877 -1.981704 -0.648402 -0.072347 0.194989 
0.297633 48.716934 0.058967 -0.000092 -1.099512 -0.005093 -3.566436 -0.056497 -1.488831 2.645071 1.377031 1.253130 1.289163 1.576814 0.614345 -2.768023 -0.459830 0.965472 1.183965 -0.706699 -0.288958 4.574853 -0.742436 -0.848161 0.957503 15.438662 -4.892262 -0.447612 7.664908 -59.525429 20.020792 1.565235 1.333982 -15.002584 -36.053692 -25.202185 0.747563 -15.344539 4.070128 2.348774 -2.563857 58.488506 17.672737 -4.351172 0.846433 -5.276445 32.120522 30.262384 -3.359327 -0.219357 -0.658184 12.942811 0.417150 -2.494753 -5.462475 2.429093 0.819388 -2.651893 0.219785 1.718035 -1.175092 -0.238768 -0.557184 7.861888 -0.595745 4.282173 -2.236053 0.999817 -1.075158 -1.752638 -5.155378 -2.034187 -0.720155 -0.036777 0.195528 
